<svg xmlns:dc="http://purl.org/dc/elements/1.1/" xmlns:cc="http://creativecommons.org/ns#" xmlns:rdf="http://www.w3.org/1999/02/22-rdf-syntax-ns#" xmlns:svg="http://www.w3.org/2000/svg" xmlns="http://www.w3.org/2000/svg" xmlns:sodipodi="http://sodipodi.sourceforge.net/DTD/sodipodi-0.dtd" xmlns:inkscape="http://www.inkscape.org/namespaces/inkscape" viewBox="0 0 8.4666667 8.4666667" version="1.1" x="0px" y="0px"><svg:g><svg:path style="color:#000000;font-style:normal;font-variant:normal;font-weight:normal;font-stretch:normal;font-size:medium;line-height:normal;font-family:sans-serif;font-variant-ligatures:normal;font-variant-position:normal;font-variant-caps:normal;font-variant-numeric:normal;font-variant-alternates:normal;font-feature-settings:normal;text-indent:0;text-align:start;text-decoration:none;text-decoration-line:none;text-decoration-style:solid;text-decoration-color:#000000;letter-spacing:normal;word-spacing:normal;text-transform:none;writing-mode:lr-tb;direction:ltr;text-orientation:mixed;dominant-baseline:auto;baseline-shift:baseline;text-anchor:start;white-space:normal;shape-padding:0;clip-rule:nonzero;display:inline;overflow:visible;visibility:visible;opacity:1;isolation:auto;mix-blend-mode:normal;color-interpolation:sRGB;color-interpolation-filters:linearRGB;solid-color:#000000;solid-opacity:1;vector-effect:none;fill:#000000;fill-opacity:1;fill-rule:nonzero;stroke:none;stroke-width:0.52916664;stroke-linecap:round;stroke-linejoin:round;stroke-miterlimit:4;stroke-dasharray:none;stroke-dashoffset:0;stroke-opacity:1;color-rendering:auto;image-rendering:auto;shape-rendering:auto;text-rendering:auto;enable-background:accumulate" d="M 3.2228023,3.3333333e-7 C 2.3228856,3.3333333e-7 1.5882753,0.73667733 1.5882753,1.6365933 c 0,0.899916 0.7346103,1.635042 1.634527,1.635042 0.899914,0 1.6365908,-0.735126 1.6365908,-1.635042 C 4.8593931,0.73667733 4.1227163,3.3333333e-7 3.2228023,3.3333333e-7 Z M 3.2238323,3.6834963 c -1.2220893,0 -2.214335,0.992246 -2.214335,2.214335 v 1.254704 a 0.26460336,0.26460336 0 0 0 0.2645834,0.264583 h 1.8686197 c -0.117393,-0.28964 -0.1834515,-0.604782 -0.1834515,-0.934827 0,-1.061947 0.6714861,-1.974937 1.6092038,-2.340942 -0.372663,-0.286141 -0.8383932,-0.457853 -1.3446204,-0.457853 z m 2.2489583,0.814421 c -1.0928086,0 -1.984375,0.891566 -1.984375,1.984374 0,1.09281 0.8915664,1.984375 1.984375,1.984375 1.0928085,0 1.9843749,-0.891565 1.9843749,-1.984375 0,-1.092808 -0.8915664,-1.984374 -1.9843749,-1.984374 z m -0.00413,0.798917 a 0.26460984,0.26460984 0 0 1 0.2676842,0.267684 v 0.959115 a 0.2646485,0.2646485 0 1 1 -0.5291666,0 v -0.959115 a 0.26460984,0.26460984 0 0 1 0.2614824,-0.267684 z m 0,1.72496 a 0.26460984,0.26460984 0 0 1 0.2676842,0.267167 v 0.193786 a 0.2646485,0.2646485 0 1 1 -0.5291666,0 v -0.193786 a 0.26460984,0.26460984 0 0 1 0.2614824,-0.267167 z"/></svg:g></svg>