<svg xmlns:dc="http://purl.org/dc/elements/1.1/" xmlns:cc="http://creativecommons.org/ns#" xmlns:rdf="http://www.w3.org/1999/02/22-rdf-syntax-ns#" xmlns:svg="http://www.w3.org/2000/svg" xmlns="http://www.w3.org/2000/svg" xmlns:sodipodi="http://sodipodi.sourceforge.net/DTD/sodipodi-0.dtd" xmlns:inkscape="http://www.inkscape.org/namespaces/inkscape" viewBox="0 0 8.4666667 8.4666667" version="1.1" x="0px" y="0px"><svg:g><svg:path style="color:#000000;font-style:normal;font-variant:normal;font-weight:normal;font-stretch:normal;font-size:medium;line-height:normal;font-family:sans-serif;font-variant-ligatures:normal;font-variant-position:normal;font-variant-caps:normal;font-variant-numeric:normal;font-variant-alternates:normal;font-feature-settings:normal;text-indent:0;text-align:start;text-decoration:none;text-decoration-line:none;text-decoration-style:solid;text-decoration-color:#000000;letter-spacing:normal;word-spacing:normal;text-transform:none;writing-mode:lr-tb;direction:ltr;text-orientation:mixed;dominant-baseline:auto;baseline-shift:baseline;text-anchor:start;white-space:normal;shape-padding:0;clip-rule:nonzero;display:inline;overflow:visible;visibility:visible;opacity:1;isolation:auto;mix-blend-mode:normal;color-interpolation:sRGB;color-interpolation-filters:linearRGB;solid-color:#000000;solid-opacity:1;vector-effect:none;fill:#000000;fill-opacity:1;fill-rule:nonzero;stroke:none;stroke-width:0.5291667;stroke-linecap:round;stroke-linejoin:round;stroke-miterlimit:4;stroke-dasharray:none;stroke-dashoffset:0;stroke-opacity:1;paint-order:normal;color-rendering:auto;image-rendering:auto;shape-rendering:auto;text-rendering:auto;enable-background:accumulate" d="m 7.0654611,0.26070733 c -0.768985,0 -1.3988812,0.62938 -1.3988812,1.39836497 0,0.09146 0.00989,0.181041 0.026871,0.267684 l -2.482535,1.491898 C 2.9209299,2.8877153 2.357341,2.5262023 1.7117814,2.5262023 c -0.94019153,0 -1.7089384,0.767199 -1.7089384,1.70739 0,0.940192 0.76874687,1.708939 1.7089384,1.708939 0.6457183,0 1.209212,-0.362786 1.4991345,-0.89452 l 2.483051,1.491898 c -0.017248,0.08734 -0.027387,0.177562 -0.027387,0.269751 0,0.768985 0.6298962,1.396299 1.3988812,1.396299 0.768985,0 1.3983626,-0.627314 1.3983626,-1.396299 0,-0.768982 -0.6293776,-1.398362 -1.3983626,-1.398362 -0.4872778,0 -0.9173157,0.253748 -1.1678867,0.634587 L 3.389716,4.5389983 c 0.0181,-0.09936 0.02894,-0.200996 0.02894,-0.305406 0,-0.104449 -0.010827,-0.206568 -0.02894,-0.305924 l 2.5078584,-1.504818 c 0.250608,0.38005 0.6807702,0.633034 1.1678867,0.633034 0.768985,0 1.3983626,-0.627827 1.3983626,-1.396812 0,-0.76898497 -0.6293776,-1.39836497 -1.3983626,-1.39836497 z m 0,0.529166 c 0.4830021,0 0.86868,0.38619697 0.86868,0.86919897 0,0.483002 -0.3856779,0.869196 -0.86868,0.869196 -0.4830022,0 -0.8691986,-0.386194 -0.8691986,-0.869196 0,-0.483002 0.3861964,-0.86919897 0.8691986,-0.86919897 z M 1.7117814,3.0558843 c 0.6542088,0 1.1777081,0.523499 1.1777081,1.177708 0,0.654209 -0.5234993,1.179772 -1.1777081,1.179772 -0.6542087,0 -1.17977174,-0.525563 -1.17977174,-1.179772 0,-0.654209 0.52556304,-1.177708 1.17977174,-1.177708 z m 5.3536797,2.88458 c 0.4830021,0 0.86868,0.386197 0.86868,0.869196 0,0.483002 -0.3856779,0.867132 -0.86868,0.867132 -0.4830022,0 -0.8691986,-0.38413 -0.8691986,-0.867132 0,-0.482999 0.3861964,-0.869196 0.8691986,-0.869196 z"/></svg:g></svg>