<svg xmlns="http://www.w3.org/2000/svg" viewBox="0 0 64 64" x="0px" y="0px"><title>CONTACT US_2</title><g data-name="Layer 2"><path d="M40.5,37a.5.5,0,0,1,1,0A16.49,16.49,0,0,1,25,53.5a.5.5,0,0,1,0-1A15.49,15.49,0,0,0,40.5,37ZM19,36a2,2,0,1,0,2,2A2,2,0,0,0,19,36Zm8,2a2,2,0,1,0-2,2A2,2,0,0,0,27,38Zm4,2a2,2,0,1,0-2-2A2,2,0,0,0,31,40ZM61,5V35a1,1,0,0,1-1,1H44.95c0,.33.05.66.05,1A20,20,0,0,1,14.83,54.21L3.45,59.89a1,1,0,0,1-1.34-1.34L7.79,47.17A20,20,0,0,1,19,17.92V5a.94.94,0,0,1,0-.11.83.83,0,0,1,.13-.39.94.94,0,0,1,0-.1l0,0a1,1,0,0,1,.16-.14l.15-.1.18-.06.19,0H60.07l.2,0,.17.06.15.1a1,1,0,0,1,.16.14l.05,0a.93.93,0,0,1,0,.1.83.83,0,0,1,.13.39A.93.93,0,0,1,61,5ZM23,6,40,18.75,57,6ZM43,37A18,18,0,1,0,9.77,46.59a.93.93,0,0,1,0,.11,1,1,0,0,1,.07.19,1.19,1.19,0,0,1,0,.38,1,1,0,0,1-.05.2.92.92,0,0,1,0,.11L5.23,56.77l9.19-4.59.11,0,.2-.05h.18l.2,0,.18.07.11,0A18,18,0,0,0,43,37Zm16-3V7L40.6,20.8a1,1,0,0,1-1.2,0L21,7V17.4A20,20,0,0,1,44.75,34Z"/></g></svg>