<svg xmlns="http://www.w3.org/2000/svg" xmlns:xlink="http://www.w3.org/1999/xlink" version="1.1" x="0px" y="0px" viewBox="0 0 100 100" style="enable-background:new 0 0 100 100;" xml:space="preserve"><style type="text/css">
	.st0{display:none;}
	.st1{display:inline;}
	.st2{display:inline;fill:#00000C;}
	.st3{display:inline;fill:#FFFFFF;}
	.st4{fill:#FFFFFF;}
</style><g><path d="M74.3,8.4H18.9v4.1h6.9v2.8h-6.9V19h6.9v2.8h-6.9v3.7h6.9v2.8h-6.9v3.7h6.9v2.8h-6.9v3.7h6.9v2.8h-6.9v3.7h6.9V48h-6.9v3.7   h6.9v2.8h-6.9v3.7h6.9v2.8h-6.9v3.7h6.9v2.8h-6.9v3.7h6.9v2.8h-6.9v3.7h6.9v2.8h-6.9v3.7h6.9v2.8h-6.9v4.4h55.3   c3.8,0,6.8-3,6.8-6.8V15.2C81.1,11.4,78,8.4,74.3,8.4z M67.4,74.5H36.6v-2.6h30.8V74.5z M67.4,68H36.6v-2.6h30.8V68z M67.4,61.6   H36.6V59h30.8V61.6z M60.3,29.2L59,39.4c-0.1,0.4-0.1,0.7-0.1,1.1c0,0.3,0,0.7,0,1c0,1,0.4,1.5,1.2,1.5c1.1,0,2.1-0.8,3.1-2.4   c0.9-1.6,1.4-3.3,1.4-5.4c0-3.2-1.1-5.8-3.3-7.8c-2.2-2.1-5-3.1-8.5-3.1c-3.6,0-6.6,1.2-9.1,3.7C41.2,30.4,40,33.4,40,37   c0,2,0.4,3.9,1.3,5.9c0.9,1.8,2.1,3.3,3.7,4.4c2.1,1.6,4.8,2.3,8.1,2.3c3,0,6.2-0.8,9.5-2.3l0.3-0.2l1,2.8l-0.2,0.1   c-3.4,1.6-6.9,2.4-10.6,2.4c-4,0-7.4-1-10.2-2.9c-2-1.4-3.6-3.2-4.7-5.5c-1.1-2.3-1.7-4.7-1.7-7.1c0-4.4,1.5-8.1,4.6-11   c3.1-3,6.9-4.5,11.4-4.5c4.2,0,7.7,1.3,10.5,3.8c2.8,2.5,4.2,5.7,4.2,9.5c0,2.9-0.8,5.5-2.3,7.6c-1.5,2.1-3.3,3.2-5.4,3.2   c-1.7,0-2.8-0.8-3.4-2.3c-1.6,1.6-3.4,2.4-5.3,2.4c-2.1,0-3.9-0.8-5.3-2.3c-1.4-1.5-2.1-3.5-2.1-5.8c0-2.5,0.8-4.6,2.3-6.3   c1.6-1.7,3.5-2.5,5.9-2.5c2.2,0,3.9,0.8,5.3,2.5l0.3-2.2H60.3z M56.3,36.7c0-1.2-0.4-2.2-1.2-3c-0.8-0.8-1.9-1.2-3.1-1.2   c-1.3,0-2.4,0.5-3.2,1.5c-0.8,1-1.3,2.3-1.3,3.8c0,1.3,0.3,2.5,1,3.3c0.7,0.9,1.5,1.3,2.6,1.3c1.4,0,2.6-0.6,3.6-1.7   S56.3,38.3,56.3,36.7z"/></g></svg>