<svg xmlns="http://www.w3.org/2000/svg" xmlns:xlink="http://www.w3.org/1999/xlink" version="1.1" x="0px" y="0px" viewBox="0 0 512 640" style="enable-background:new 0 0 512 512;" xml:space="preserve"><g><g><path d="M243.05,362.006c-63.499,0-120.195-12.524-151.664-33.504c-0.834-0.557-1.336-1.493-1.336-2.496v-63c0-1.657,1.343-3,3-3    h1c0.584,0,1.155,0.171,1.644,0.49c30.143,19.749,87.983,32.51,147.356,32.51c59.846,0,116.708-12.467,148.394-32.534    c0.924-0.586,2.093-0.624,3.052-0.094c0.958,0.527,1.554,1.534,1.554,2.628v63c0,0.986-0.484,1.909-1.297,2.47    C364.31,349.471,307.598,362.006,243.05,362.006z M96.05,324.384c30.394,19.53,86.47,31.622,147,31.622    c61.513,0,117.585-12.08,147-31.593v-56.104c-33.279,19.016-88.85,30.697-147,30.697c-59.097,0-114.794-11.891-147-31.207V324.384    z"/></g><g><path d="M243.05,299.006c-60.92,0-119.012-12.823-151.605-33.466c-0.869-0.55-1.395-1.506-1.395-2.534v-63    c0-0.795,0.316-1.559,0.879-2.121l1-1c1.023-1.024,2.633-1.17,3.824-0.349c29.041,20.028,85.481,32.47,147.297,32.47    c61.43,0,118.269-12.452,148.335-32.496c0.921-0.614,2.103-0.67,3.08-0.149c0.975,0.522,1.584,1.539,1.584,2.645v64    c0,1.012-0.51,1.955-1.355,2.51C363.164,286.173,305.058,299.006,243.05,299.006z M96.05,261.34    c31.942,19.558,88.022,31.666,147,31.666c60.014,0,116.089-12.097,147-31.637V204.44c-32.219,19.205-86.524,30.565-147,30.565    c-60.466,0-116.118-11.848-147-31.104V261.34z"/></g><g><path d="M243.05,235.006c-63.499,0-120.195-12.525-151.664-33.504c-0.834-0.556-1.336-1.493-1.336-2.496v-63c0-1.657,1.343-3,3-3    h1c0.584,0,1.155,0.17,1.644,0.491c30.143,19.749,87.983,32.509,147.356,32.509c59.846,0,116.708-12.466,148.394-32.535    c0.924-0.585,2.093-0.621,3.052-0.094c0.958,0.527,1.554,1.535,1.554,2.628v63c0,0.986-0.484,1.91-1.297,2.47    C364.31,222.471,307.598,235.006,243.05,235.006z M96.05,197.384c30.394,19.531,86.47,31.622,147,31.622    c61.513,0,117.585-12.08,147-31.593v-56.104c-33.279,19.015-88.85,30.697-147,30.697c-59.097,0-114.794-11.891-147-31.208V197.384    z"/></g><g><path d="M243.05,172.006c-60.92,0-119.012-12.823-151.605-33.465c-0.869-0.55-1.395-1.507-1.395-2.535v-59    c0-1.364,0.92-2.557,2.24-2.902c1.316-0.348,2.706,0.241,3.375,1.431c7.025,12.488,60.029,26.36,144.425,27.471l5.96,0    c85.398-1.109,138.103-14.915,144.316-27.342c0.622-1.245,2.016-1.899,3.373-1.578c1.354,0.32,2.311,1.529,2.311,2.92v59    c0,1.012-0.51,1.955-1.355,2.509C363.164,159.173,305.058,172.006,243.05,172.006z M96.05,134.34    c31.942,19.558,88.022,31.666,147,31.666c60.014,0,116.089-12.096,147-31.637V84.734c-20.604,15.686-84.278,23.497-143.96,24.271    l-6.039,0c-57.434-0.755-122.792-8.751-144-24.545V134.34z"/></g><g><path d="M243.05,439.006c-13.551,0-25-11.448-25-25s11.449-25,25-25s25,11.448,25,25S256.602,439.006,243.05,439.006z     M243.05,395.006c-10.299,0-19,8.701-19,19s8.701,19,19,19s19-8.701,19-19S253.349,395.006,243.05,395.006z"/></g><g><path d="M450.05,417.006h-185c-1.657,0-3-1.343-3-3s1.343-3,3-3h185c1.657,0,3,1.343,3,3S451.707,417.006,450.05,417.006z"/></g><g><path d="M221.05,417.006h-185c-1.657,0-3-1.343-3-3s1.343-3,3-3h185c1.657,0,3,1.343,3,3S222.707,417.006,221.05,417.006z"/></g><g><path d="M243.05,395.006c-1.657,0-3-1.343-3-3v-33c0-1.657,1.343-3,3-3s3,1.343,3,3v33    C246.05,393.663,244.707,395.006,243.05,395.006z"/></g><g><path d="M243.05,109.006c-40.281,0-78.376-3.487-107.267-9.819C114.464,94.514,89.05,86.179,89.05,73.006    s25.414-21.508,46.733-26.181c28.891-6.332,66.986-9.819,107.267-9.819c74.655,0,154,12.617,154,36    S317.705,109.006,243.05,109.006z M243.05,43.006c-39.862,0-77.501,3.438-105.983,9.681c-30.979,6.79-42.017,14.948-42.017,20.319    s11.038,13.53,42.017,20.319c28.482,6.243,66.121,9.681,105.983,9.681c40.234,0,78.005-3.438,106.354-9.68    c30.705-6.761,41.646-14.93,41.646-20.32s-10.94-13.56-41.646-20.32C321.056,46.443,283.284,43.006,243.05,43.006z"/></g><g><path d="M350.05,475.006h-312c-1.657,0-3-1.343-3-3s1.343-3,3-3h312c1.657,0,3,1.343,3,3S351.707,475.006,350.05,475.006z"/></g><g><path d="M437.05,456.006h-216c-1.657,0-3-1.343-3-3s1.343-3,3-3h216c1.657,0,3,1.343,3,3S438.707,456.006,437.05,456.006z"/></g><g><path d="M486.05,456.006h-27c-1.657,0-3-1.343-3-3s1.343-3,3-3h27c1.657,0,3,1.343,3,3S487.707,456.006,486.05,456.006z"/></g><g><path d="M128.05,457.006h-102c-1.657,0-3-1.343-3-3s1.343-3,3-3h102c1.657,0,3,1.343,3,3S129.707,457.006,128.05,457.006z"/></g><g><path d="M396.05,384.006h-13c-1.474,0-2.729-1.07-2.962-2.526l-3.685-23.026c-1.454-0.341-2.997-0.684-4.504-1.019    c-1.587-0.353-3.212-0.714-4.751-1.076l-14.804,17.58c-0.92,1.093-2.479,1.384-3.731,0.701l-11-6    c-1.29-0.704-1.881-2.238-1.396-3.625l7-20c0.33-0.94,1.104-1.656,2.068-1.91c17.401-4.579,32.836-11.037,44.764-18.72V200.006    c0-1.657,1.343-3,3-3h3c1.474,0,2.729,1.071,2.962,2.526l3.62,22.625c2.563,0.294,4.886,0.976,7.149,1.64    c1.007,0.295,2.036,0.597,3.088,0.864l13.826-17.513c0.883-1.117,2.427-1.459,3.696-0.824l12,6    c1.41,0.705,2.034,2.381,1.428,3.837l-9.12,21.888c2.757,2.239,5.069,4.551,7.309,7.309l21.888-9.12    c1.389-0.579,2.987-0.041,3.746,1.257l7,12c0.749,1.285,0.443,2.925-0.718,3.854l-18.444,14.756    c0.162,0.524,0.337,1.061,0.516,1.609c0.747,2.298,1.571,4.834,1.903,7.71l22.625,3.62c1.456,0.232,2.526,1.488,2.526,2.962v13    c0,1.474-1.07,2.729-2.526,2.962l-22.671,3.628c-0.36,2.539-1.153,5.174-1.875,7.571c-0.178,0.593-0.352,1.169-0.515,1.728    l18.461,14.769c1.196,0.957,1.479,2.661,0.657,3.953l-7,11c-0.761,1.196-2.256,1.698-3.585,1.198l-21.935-8.226    c-2.256,2.787-4.583,5.118-7.362,7.375l9.12,21.888c0.606,1.456-0.018,3.133-1.428,3.838l-12,6    c-1.27,0.635-2.813,0.292-3.696-0.824l-13.854-17.55c-1.791,0.375-3.486,0.752-5.141,1.119c-1.612,0.358-3.266,0.726-5.016,1.093    l-3.673,22.952C398.779,382.936,397.523,384.006,396.05,384.006z M385.608,378.006h7.883l3.597-22.474    c0.197-1.238,1.145-2.223,2.374-2.468c2.468-0.494,4.74-0.999,6.938-1.487c2.228-0.495,4.53-1.007,7.063-1.513    c1.103-0.219,2.244,0.197,2.942,1.082l13.487,17.084l7.312-3.655l-8.923-21.415c-0.527-1.268-0.129-2.73,0.97-3.555    c3.765-2.823,6.576-5.635,9.399-9.399c0.799-1.066,2.201-1.48,3.454-1.009l21.722,8.146l4.248-6.676l-17.897-14.318    c-0.916-0.733-1.321-1.933-1.036-3.07c0.309-1.235,0.689-2.501,1.093-3.841c0.894-2.969,1.817-6.039,1.817-8.432    c0-1.474,1.07-2.729,2.526-2.962l22.474-3.597v-7.883l-22.474-3.597c-1.456-0.232-2.526-1.488-2.526-2.962    c0-3.021-0.855-5.651-1.761-8.437c-0.405-1.244-0.823-2.532-1.149-3.836c-0.285-1.138,0.12-2.337,1.036-3.07l17.978-14.382    l-4.372-7.496l-21.577,8.99c-1.271,0.529-2.729,0.129-3.555-0.969c-2.823-3.765-5.635-6.576-9.399-9.4    c-1.099-0.823-1.497-2.287-0.97-3.554l8.923-21.415l-7.312-3.656l-13.487,17.084c-0.699,0.886-1.841,1.302-2.942,1.083    c-1.933-0.387-3.68-0.899-5.369-1.395c-2.831-0.83-5.276-1.547-8.043-1.547c-1.474,0-2.729-1.071-2.962-2.526l-1.038-6.485    v107.011c0,1.003-0.501,1.939-1.336,2.496c-12.296,8.197-28.298,15.096-46.356,19.992l-5.635,16.098l6.611,3.606l14.421-17.125    c0.738-0.876,1.91-1.258,3.022-0.978c1.962,0.49,4.229,0.994,6.423,1.481c2.231,0.496,4.539,1.009,6.577,1.519    c1.166,0.291,2.045,1.25,2.234,2.437L385.608,378.006z"/></g></g><text x="0" y="527" fill="#000000" font-size="5px" font-weight="bold" font-family="'Helvetica Neue', Helvetica, Arial-Unicode, Arial, Sans-serif">Created by Flatart</text><text x="0" y="532" fill="#000000" font-size="5px" font-weight="bold" font-family="'Helvetica Neue', Helvetica, Arial-Unicode, Arial, Sans-serif">from the Noun Project</text></svg>