<svg xmlns="http://www.w3.org/2000/svg" xmlns:xlink="http://www.w3.org/1999/xlink" viewBox="0 0 200 250" version="1.1" x="0px" y="0px"><title>code</title><desc>Created with Sketch.</desc><g stroke="none" stroke-width="1" fill="none" fill-rule="evenodd"><g transform="translate(36.000000, 43.000000)" fill="#000000"><path d="M121,0 C124.865993,0 128,3.13400675 128,7 L128,7 L128,62.5878906 C128,64.2447449 126.656854,65.5878906 125,65.5878906 C123.343146,65.5878906 122,64.2447449 122,62.5878906 L122,62.5878906 L122,29.5 L6,29.5 L6,109 C6,109.512836 6.38604019,109.935507 6.88337887,109.993272 L7,110 L65.1425781,110 C66.7994324,110 68.1425781,111.343146 68.1425781,113 C68.1425781,114.656854 66.7994324,116 65.1425781,116 L65.1425781,116 L7,116 C3.13400675,116 0,112.865993 0,109 L0,109 L0,7 C0,3.13400675 3.13400675,0 7,0 L7,0 Z M78.6623535,110 C80.3192078,110 81.6623535,111.343146 81.6623535,113 C81.6623535,114.656854 80.3192078,116 78.6623535,116 L78.6623535,116 L74.8874512,116 C73.2305969,116 71.8874512,114.656854 71.8874512,113 C71.8874512,111.343146 73.2305969,110 74.8874512,110 L74.8874512,110 Z M121,6 L7,6 C6.44771525,6 6,6.44771525 6,7 L6,7 L6,23.5 L122,23.5 L122,7 C122,6.48716416 121.61396,6.06449284 121.116621,6.00672773 L121,6 Z" fill-rule="nonzero"/><path d="M42.15625,87 C43.8131042,87 45.15625,88.3431458 45.15625,90 C45.15625,91.6568542 43.8131042,93 42.15625,93 L42.15625,93 L23.5,93 C21.8431458,93 20.5,91.6568542 20.5,90 C20.5,88.3431458 21.8431458,87 23.5,87 L23.5,87 Z M28.8544922,74 C30.5113464,74 31.8544922,75.3431458 31.8544922,77 C31.8544922,78.6568542 30.5113464,80 28.8544922,80 L28.8544922,80 L23.828125,80 C22.1712708,80 20.828125,78.6568542 20.828125,77 C20.828125,75.3431458 22.1712708,74 23.828125,74 L23.828125,74 Z M43.8544922,74 C45.5113464,74 46.8544922,75.3431458 46.8544922,77 C46.8544922,78.6568542 45.5113464,80 43.8544922,80 L43.8544922,80 L38.828125,80 C37.1712708,80 35.828125,78.6568542 35.828125,77 C35.828125,75.3431458 37.1712708,74 38.828125,74 L38.828125,74 Z M42.15625,61 C43.8131042,61 45.15625,62.3431458 45.15625,64 C45.15625,65.6568542 43.8131042,67 42.15625,67 L42.15625,67 L23.5,67 C21.8431458,67 20.5,65.6568542 20.5,64 C20.5,62.3431458 21.8431458,61 23.5,61 L23.5,61 Z M58.8544922,61 C60.5113464,61 61.8544922,62.3431458 61.8544922,64 C61.8544922,65.6568542 60.5113464,67 58.8544922,67 L58.8544922,67 L53.828125,67 C52.1712708,67 50.828125,65.6568542 50.828125,64 C50.828125,62.3431458 52.1712708,61 53.828125,61 L53.828125,61 Z M90.2089844,46.5 C91.8658386,46.5 93.2089844,47.8431458 93.2089844,49.5 C93.2089844,51.1568542 91.8658386,52.5 90.2089844,52.5 L90.2089844,52.5 L23.5,52.5 C21.8431458,52.5 20.5,51.1568542 20.5,49.5 C20.5,47.8431458 21.8431458,46.5 23.5,46.5 L23.5,46.5 Z" fill-rule="nonzero"/><path d="M35,12 C36.6568542,12 38,13.3431458 38,15 C38,16.6568542 36.6568542,18 35,18 C33.3431458,18 32,16.6568542 32,15 C32,13.3431458 33.3431458,12 35,12 Z M15,12 C16.6568542,12 18,13.3431458 18,15 C18,16.6568542 16.6568542,18 15,18 C13.3431458,18 12,16.6568542 12,15 C12,13.3431458 13.3431458,12 15,12 Z M25,12 C26.6568542,12 28,13.3431458 28,15 C28,16.6568542 26.6568542,18 25,18 C23.3431458,18 22,16.6568542 22,15 C22,13.3431458 23.3431458,12 25,12 Z"/><path d="M112.063539,73.6358382 C112.402731,72.0140753 113.992399,70.9743464 115.614162,71.3135387 C117.235925,71.6527309 118.275654,73.242399 117.936461,74.8641618 L117.936461,74.8641618 L109.936461,113.114162 C109.597269,114.735925 108.007601,115.775654 106.385838,115.436461 C104.764075,115.097269 103.724346,113.507601 104.063539,111.885838 L104.063539,111.885838 Z M127.08241,78.0904671 L141.08241,91.5904671 C142.305868,92.7702299 142.305868,94.7297701 141.08241,95.9095329 L127.08241,109.409533 C125.889733,110.559614 123.990552,110.525084 122.84047,109.332407 C121.690389,108.13973 121.724919,106.240549 122.917596,105.090467 L134.678081,93.7499969 L122.917596,82.4095329 C121.724919,81.2594514 121.690389,79.3602704 122.84047,78.1675933 C123.990552,76.9749162 125.889733,76.9403856 127.08241,78.0904671 Z M95.9175933,78.0904671 C97.1102704,76.9403856 99.0094514,76.9749162 100.159533,78.1675933 C101.309614,79.3602704 101.275084,81.2594514 100.082407,82.4095329 L100.082407,82.4095329 L88.3219223,93.7499969 L100.082407,105.090467 C101.275084,106.240549 101.309614,108.13973 100.159533,109.332407 C99.0094514,110.525084 97.1102704,110.559614 95.9175933,109.409533 L95.9175933,109.409533 L81.9175933,95.9095329 C80.6941356,94.7297701 80.6941356,92.7702299 81.9175933,91.5904671 L81.9175933,91.5904671 Z" fill-rule="nonzero"/></g></g><text x="0" y="215" fill="#000000" font-size="5px" font-weight="bold" font-family="'Helvetica Neue', Helvetica, Arial-Unicode, Arial, Sans-serif">Created by  Boris</text><text x="0" y="220" fill="#000000" font-size="5px" font-weight="bold" font-family="'Helvetica Neue', Helvetica, Arial-Unicode, Arial, Sans-serif">from the Noun Project</text></svg>