<svg xmlns:dc="http://purl.org/dc/elements/1.1/" xmlns:cc="http://creativecommons.org/ns#" xmlns:rdf="http://www.w3.org/1999/02/22-rdf-syntax-ns#" xmlns:svg="http://www.w3.org/2000/svg" xmlns="http://www.w3.org/2000/svg" xmlns:sodipodi="http://sodipodi.sourceforge.net/DTD/sodipodi-0.dtd" xmlns:inkscape="http://www.inkscape.org/namespaces/inkscape" viewBox="0 0 135.467 135.467" version="1.1" x="0px" y="0px"><g transform="translate(0,-161.535)"><path style="opacity:1;fill:#000000;fill-opacity:1;fill-rule:nonzero;stroke:none;stroke-width:1.058336;stroke-linecap:round;stroke-linejoin:round;stroke-miterlimit:4;stroke-dasharray:none;stroke-dashoffset:0;stroke-opacity:1;paint-order:normal" d="m 9.04918,163.122 a 0.222734,0.222734 0 0 0 -0.22222,0.224 v 131.846 a 0.222734,0.222734 0 0 0 0.22222,0.223 H 119.515 a 0.222734,0.222734 0 0 0 0.222,-0.223 V 163.347 h 6.903 v 7.126 0 -7.127 h -6.904 a 0.222734,0.222734 0 0 0 -0.222,-0.223 z m 15.86862,0.445 h 23.4948 l 5.1783,6.904 H 119.293 V 294.97 H 9.27225 V 170.472 h 5.12205 5.3451 z m -10.5235,1.56 v 3.563 l -1.782,-1.781 z m 3.5631,0 1.782,1.782 -1.782,1.782 z m 8.9082,0 v 3.563 h 19.5983 v -3.563 z m 87.3024,6.904 c -1.106,0 -2.003,0.898 -2.003,2.004 v 117.593 c 0,1.107 0.897,2.004 2.003,2.004 1.107,0 2.005,-0.897 2.005,-2.004 V 174.036 c 0,-1.106 -0.898,-2.004 -2.005,-2.005 z m -101.5557,5.568 v 3.564 h 7.1271 v -3.564 z m 12.4722,0 v 3.564 h 17.8172 v -3.564 z m -12.4722,5.345 v 3.564 h 7.1271 v -3.564 z m 16.0353,0 v 3.564 h 14.2532 v -3.564 z m -16.0353,5.345 v 3.564 h 7.1271 v -3.564 z m 19.5984,0 v 3.564 h 26.7257 v -3.564 z m -19.5984,5.345 v 3.564 h 7.1271 v -3.564 z m 19.5984,0 v 3.564 H 105.26 v -3.564 z m -19.5984,5.345 v 3.564 h 7.1271 v -3.564 z m 19.5984,0 v 3.564 H 105.26 v -3.564 z m 80.4003,2.647 c 0.303,0.547 0.885,0.917 1.558,0.917 0.672,0 1.255,-0.37 1.558,-0.916 v 90.002 c 0,0.868 -0.69,1.559 -1.559,1.559 -0.867,0 -1.557,-0.691 -1.557,-1.559 z m -99.9987,2.699 v 3.563 h 7.1271 v -3.563 z m 16.0353,0 v 3.563 h 14.2532 v -3.563 z m -16.0353,5.345 v 3.563 h 7.1271 v -3.563 z m 16.0353,0 v 3.563 h 14.2532 v -3.563 z m -16.0353,5.345 v 3.563 h 7.1271 v -3.563 z m 19.5984,0 v 3.563 h 10.6901 v -3.563 z m -19.5984,5.345 v 3.563 h 7.1271 v -3.563 z m 23.1623,0 v 3.563 h 10.6902 v -3.563 z m -23.1623,5.345 v 3.563 h 7.1271 v -3.563 z m 26.7246,0 v 3.563 H 105.26 v -3.563 z m -26.7246,5.345 v 3.563 h 7.1271 v -3.563 z m 26.7246,0 v 3.563 H 105.26 v -3.563 z m -26.7246,5.345 v 3.563 h 7.1271 v -3.563 z m 23.1623,0 v 3.563 h 10.6902 v -3.563 z m -3.5639,5.345 v 3.563 h 10.6901 v -3.563 z m -19.5984,0 v 3.563 h 7.1271 v -3.563 z m 19.5984,5.344 v 3.563 h 10.6901 v -3.563 z m -19.5984,0 v 3.563 h 7.1271 v -3.563 z m 23.1623,5.345 v 3.563 h 10.6902 v -3.563 z m -23.1623,0 v 3.563 h 7.1271 v -3.563 z m 26.7246,5.345 v 3.562 H 105.26 v -3.562 z m -26.7246,0 v 3.562 h 7.1271 v -3.562 z m 26.7246,5.343 v 3.563 H 105.26 v -3.563 z m -26.7246,0 v 3.563 h 7.1271 v -3.563 z m 26.7246,5.344 v 3.563 H 105.26 v -3.563 z m -26.7246,0 v 3.563 h 7.1271 v -3.563 z m 26.7246,5.346 v 3.563 H 105.26 v -3.563 z m -26.7246,0 v 3.563 h 7.1271 v -3.563 z m 23.1623,5.344 v 3.562 h 10.6902 v -3.562 z m -23.1623,0 v 3.562 h 7.1271 v -3.562 z m 19.5984,5.344 v 3.562 h 10.6901 v -3.562 z m -19.5984,0 v 3.564 h 7.1271 v -3.564 z m 0,5.343 v 3.563 h 7.1271 v -3.563 z m 12.4722,0 v 3.563 h 17.8172 v -3.563 z"/></g></svg>